<svg xmlns="http://www.w3.org/2000/svg" viewBox="0 0 1024 1024" width="1024" height="1024" role="img" aria-label="Choragos">
  <title>Choragos</title>
  <defs>
    <linearGradient id="tile" x1="0" y1="0" x2="0" y2="1">
      <stop offset="0" stop-color="#2b2620"/>
      <stop offset="1" stop-color="#17140f"/>
    </linearGradient>
  </defs>
  <rect x="96" y="96" width="832" height="832" rx="186" fill="url(#tile)"/>
  <g transform="translate(96 111) scale(13)">
    <g fill="#d3a15a">
      <circle cx="16" cy="12" r="2.6"/>
      <circle cx="32" cy="10" r="2.6"/>
      <circle cx="48" cy="12" r="2.6"/>
    </g>
    <g fill="none" stroke="#eae7dd" stroke-width="3.1" stroke-linecap="round">
      <path d="M16 12 32 29"/>
      <path d="M32 10 32 29"/>
      <path d="M48 12 32 29"/>
    </g>
    <path fill="#d3a15a" fill-rule="evenodd" d="M32 28 38.5 31.75 38.5 39.25 32 43 25.5 39.25 25.5 31.75Z M34.3 35.5A2.3 2.3 0 1 1 29.7 35.5 2.3 2.3 0 1 1 34.3 35.5Z"/>
    <g fill="none" stroke="#eae7dd" stroke-width="3.1" stroke-linecap="round">
      <path d="M32 43 32 50.5"/>
      <path d="M23 53.2 41 53.2"/>
    </g>
  </g>
</svg>
