<svg xmlns="http://www.w3.org/2000/svg" viewBox="0 0 289.14 65.08" width="289" height="65" role="img" aria-label="Choragos">
  <title>Choragos</title>
  <g transform="translate(5.00,3.24) scale(0.86063)">
    <g fill="#a5711f"><circle cx="16" cy="12" r="2.3"/><circle cx="32" cy="10" r="2.3"/><circle cx="48" cy="12" r="2.3"/></g>
    <g fill="none" stroke="#14161c" stroke-width="2.6" stroke-linecap="round"><path d="M16 12 32 29"/><path d="M32 10 32 29"/><path d="M48 12 32 29"/></g>
    <path fill="#a5711f" fill-rule="evenodd" d="M32 28.5 37.63 31.75 37.63 38.25 32 41.5 26.37 38.25 26.37 31.75Z M34 35A2 2 0 1 1 30 35 2 2 0 1 1 34 35Z"/>
    <g fill="none" stroke="#14161c" stroke-width="2.6" stroke-linecap="round"><path d="M32 41.5 32 50"/><path d="M24 52.6 40 52.6"/></g>
  </g>
  <g transform="translate(74.02,43.04)">
    <path fill="#14161c" d="M33.330990864371046 -4.229093464511595 32.399156711173575 -2.0070274068868588Q29.603654251581165 -0.5973295853829936 26.927617709065352 0.035839775122979645Q24.251581166549542 0.6690091356289529 21.097680955727334 0.6690091356289529Q17.394237526352775 0.6690091356289529 14.21644413211525 -0.26282501756851717Q11.038650737877722 -1.1946591707659873 8.661278988053407 -2.9269149683766686Q6.2839072382290935 -4.6591707659873505 4.778636683063949 -6.809557273366128Q3.273366127898805 -8.959943780744904 2.4848910751932536 -11.480674631061138Q1.6964160224877018 -14.001405481377372 1.6964160224877018 -17.01194659170766Q1.6964160224877018 -24.633872101194658 7.012649332396345 -29.639494026704142Q12.328882642304988 -34.64511595221363 21.52775825720309 -34.64511595221363Q23.702037947997187 -34.64511595221363 25.55375966268447 -34.39423752635277Q27.40548137737175 -34.143359100491914 30.0695713281799 -33.438510189739986Q32.73366127898805 -32.73366127898805 33.330990864371046 -32.614195361911456Q32.80534082923401 -31.300070274068865 32.542515811665496 -30.03373155305692Q32.160224877020376 -28.002810962754744 32.01686577652846 -25.32677442023893H30.511595221363315L30.487702037947997 -28.14617006324666Q30.2487702037948 -30.487702037947997 27.895291637385803 -31.634574841883346Q25.541813070976808 -32.781447645818695 21.002108222066056 -32.781447645818695Q17.609276177090653 -32.73366127898805 15.243851018973999 -31.90934645115952Q12.878425860857343 -31.085031623330988 11.074490513000702 -29.304989458889665Q9.270555165144062 -27.524947294448346 8.123682361208713 -24.789177793394238Q6.9768095572733655 -22.053408292340126 6.952916373858046 -17.91988756148981Q6.952916373858046 -10.680252986647927 11.3731553056922 -6.271960646521434Q15.793394237526352 -1.8636683063949402 23.056921995783554 -1.8636683063949402Q26.330288123682358 -1.8636683063949402 29.12579058327477 -2.7716092761770903Q31.03724525650035 -3.3928320449754037 32.92480674631061 -4.73085031623331Z"/>
    <path fill="#14161c" d="M35.48137737174982 0.0V-1.3619114546732256L37.72733661278988 -1.3858046380885451Q38.25298664792691 -1.409697821503865 38.52775825720309 -1.5650035137034433Q38.80252986647926 -1.7203092059030216 38.94588896697118 -1.9592410400562192Q39.2087139845397 -2.437104708362614 39.25650035137034 -3.6556570625439213Q39.28039353478566 -3.966268446943078 39.42375263527758 -10.513000702740689V-22.865776528460998Q39.42375263527758 -26.855938158819395 39.28039353478566 -31.10892480674631Q39.18482080112438 -33.976106816584675 39.01756851721714 -34.31061138439915Q38.89810260014055 -34.54954321855235 38.63527758257202 -34.64511595221363Q38.27687983134223 -34.81236823612087 35.3380182712579 -34.81236823612087V-36.22206605762474Q40.737877723120164 -36.891075193253684 42.8404778636683 -37.894588896697115Q43.15108924806746 -38.037947997189036 43.318341531974696 -38.037947997189036Q43.485593815881934 -38.037947997189036 43.58116654954321 -37.930428671820096Q43.67673928320449 -37.822909346451155 43.67673928320449 -37.6317638791286Q43.67673928320449 -37.46451159522136 43.628952916373855 -37.15390021082221L43.60505973295854 -36.36542515811665Q43.485593815881934 -32.088545326774415 43.461700632466616 -29.078004216444132L43.413914265635974 -25.35066760365425V-18.373858046380885Q43.74841883345045 -18.636683063949402 45.30147575544623 -19.998594518622628Q46.854532677442016 -21.360505973295854 47.14125087842586 -21.62333099086437Q47.59522136331693 -22.053408292340126 47.85804638088545 -22.196767392832044Q48.31201686577652 -22.435699226985243 49.219957835558674 -22.674631061138438Q50.4624033731553 -23.009135628952915 51.63316936050597 -23.009135628952915Q53.83134223471538 -23.009135628952915 55.80252986647926 -21.969782150386507Q57.773717498243144 -20.930428671820096 58.53829936753338 -19.353478566408995Q59.30288123682361 -17.77652846099789 59.30288123682361 -14.694307800421644V-10.489107519325369L59.37456078706957 -7.191848208011243Q59.44624033731553 -4.109627547434997 59.44624033731553 -3.7273366127898804Q59.494026704146165 -2.5804638088545326 59.73295853829936 -2.0548137737174983Q59.82853127196064 -1.8158819395643007 60.0196767392832 -1.6605762473647223Q60.210822206605755 -1.505270555165144 60.59311314125087 -1.4335910049191847Q60.73647224174279 -1.409697821503865 63.07800421644413 -1.3619114546732256V0.0Q60.354181307097676 -0.11946591707659873 59.11173576950105 -0.11946591707659873Q58.06043569922698 -0.11946591707659873 54.787069571328175 0.0Q55.12157413914265 -3.5361911454673223 55.12157413914265 -6.881236823612086V-12.806746310611384Q55.12157413914265 -15.578355586788474 54.715390021082214 -16.79690794096978Q54.30920590302178 -18.015460295151087 53.05481377371749 -18.983134223471538Q51.800421644413206 -19.95080815179199 49.72171468728039 -19.95080815179199Q48.4075895994378 -19.95080815179199 47.38018271257905 -19.568517217146873Q46.3527758257203 -19.186226282501757 45.49262122276879 -18.421644413211524Q44.63246661981728 -17.657062543921292 44.035137034434285 -16.77301475755446Q43.74841883345045 -16.342937456078705 43.65284609978917 -15.733661278988052Q43.557273366127895 -15.1243851018974 43.557273366127895 -13.284609978917779V-10.489107519325369Q43.67673928320449 -4.300773014757554 43.70063246661981 -3.7990161630358394Q43.74841883345045 -2.604356992269852 43.98735066760365 -2.0548137737174983Q44.08292340126493 -1.8158819395643007 44.27406886858749 -1.6605762473647223Q44.46521433591005 -1.505270555165144 44.84750527055516 -1.4335910049191847Q45.0147575544624 -1.409697821503865 47.49964862965565 -1.3619114546732256V0.0Q43.246661981728735 -0.16725228390723823 41.62192550948699 -0.16725228390723823Q40.21222768798313 -0.16725228390723823 35.48137737174982 0.0Z"/>
    <path fill="#14161c" d="M65.75404075895993 -10.990864371047083Q65.75404075895993 -16.342937456078705 69.15881939564301 -19.72382290934645Q72.56359803232607 -23.104708362614193 77.89177793394236 -23.104708362614193Q82.90934645115951 -23.104708362614193 86.06324666198171 -19.95080815179199Q89.21714687280392 -16.79690794096978 89.21714687280392 -11.803232607167955Q89.21714687280392 -8.314827828531271 87.59241040056219 -5.423752635277582Q85.96767392832044 -2.532677442023893 83.00491918482079 -0.8959943780744906Q80.04216444132115 0.7406886858749121 76.48208011243851 0.7406886858749121Q73.71047083626141 0.7406886858749121 71.78706957132817 -0.19114546732255794Q69.86366830639493 -1.122979620520028 68.66900913562895 -2.532677442023893Q67.47434996486297 -3.942375263527758 66.85312719606465 -5.423752635277582Q65.75404075895993 -8.028109627547435 65.75404075895993 -10.990864371047083ZM70.26985242445537 -12.758959943780745Q70.26985242445537 -9.820098383696415 71.24947294448347 -6.785664089950807Q72.22909346451159 -3.7512297962052 74.08081517919888 -2.3534785664089948Q75.93253689388615 -0.9557273366127899 78.10681658468025 -0.9557273366127899Q80.87842586085733 -0.9557273366127899 82.74209416725228 -3.1539002108222065Q84.60576247364722 -5.352073085031623 84.60576247364722 -9.915671117357695Q84.60576247364722 -13.714687280393534 83.49472944483485 -16.474349964862967Q82.38369641602247 -19.234012649332396 80.66338721011945 -20.368938861560082Q78.94307800421643 -21.50386507378777 76.86437104708362 -21.50386507378777Q73.92550948699929 -21.50386507378777 72.09768095572733 -19.377371749824313Q70.26985242445537 -17.250878425860858 70.26985242445537 -12.758959943780745Z"/>
    <path fill="#14161c" d="M92.4427266338721 0.0V-1.3619114546732256Q95.14265635980323 -1.409697821503865 95.35769501054111 -1.4574841883345044Q95.76387912860154 -1.5291637385804637 95.96697118763177 -1.684469430780042Q96.17006324666198 -1.8397751229796204 96.28952916373858 -2.1264933239634574Q96.52846099789177 -2.6760365425158117 96.57624736472242 -3.846802529866479Q96.71960646521433 -10.22628250175685 96.71960646521433 -10.513000702740689V-13.356289529163737Q96.71960646521433 -15.267744202389318 96.64792691496838 -17.465917076598735Q96.60014054813773 -18.8756148981026 96.44483485593815 -19.138439915671118Q96.28952916373858 -19.401264933239634 95.89529163738581 -19.532677442023893Q95.50105411103303 -19.66408995080815 92.77723120168658 -19.64019676739283V-21.002108222066056Q97.60365425158116 -21.67111735769501 99.8257203092059 -22.7463106113844Q100.30358397751229 -22.985242445537594 100.47083626141954 -22.985242445537594Q100.63808854532677 -22.985242445537594 100.73366127898805 -22.865776528460998Q100.82923401264932 -22.7463106113844 100.82923401264932 -22.5073787772312Q100.82923401264932 -22.34012649332396 100.80534082923401 -22.125087842586083Q100.68587491215742 -20.66760365425158 100.66198172874209 -17.609276177090653Q101.73717498243148 -18.85172171468728 102.64511595221363 -20.070274068868585Q103.55305692199578 -21.288826423049894 103.95924104005621 -21.64722417427969Q104.6760365425158 -22.268446943078004 105.60787069571327 -22.63879128601546Q106.53970484891074 -23.009135628952915 107.54321855235418 -23.009135628952915Q108.54673225579761 -23.009135628952915 109.52635277582571 -22.57905832747716L109.66971187631763 -22.244553759662683Q109.31131412508785 -19.066760365425157 109.2635277582572 -16.653548840477864H108.18833450456782Q107.63879128601546 -17.80042164441321 106.9100491918482 -18.326071679550246Q106.18130709768096 -18.85172171468728 105.08222066057624 -18.85172171468728Q103.24244553759662 -18.85172171468728 101.95221363316935 -17.334504567814477Q100.66198172874209 -15.817287420941671 100.66198172874209 -12.782853127196065V-10.32185523541813Q100.66198172874209 -8.744905130007027 100.78144764581869 -4.563598032326071Q100.80534082923401 -3.082220660576247 100.90091356289528 -2.6760365425158117Q100.99648629655657 -2.269852424455376 101.15179198875614 -2.0906535488404776Q101.30709768095572 -1.9114546732255797 101.66549543218552 -1.791988756148981Q102.38229093464511 -1.5769501054111033 105.53619114546731 -1.3619114546732256V0.0Q101.33099086437105 -0.16725228390723823 98.3682361208714 -0.16725228390723823Q95.30990864371047 -0.16725228390723823 92.4427266338721 0.0Z"/>
    <path fill="#a5711f" d="M116.31201686577653 -16.366830639494026 115.04567814476458 -16.701335207308503Q115.0695713281799 -17.250878425860858 115.0695713281799 -18.206605762473647Q115.0695713281799 -19.210119465917074 115.04567814476458 -19.80744905130007Q118.08011243851018 -21.79058327477161 120.01546029515109 -22.48348559381588Q121.49683766690092 -22.985242445537594 123.33661278988053 -22.985242445537594Q126.06043569922699 -22.985242445537594 127.92410400562193 -21.957835558678845Q129.78777231201687 -20.930428671820096 130.69571328179902 -19.018973998594518Q131.31693605059732 -17.680955727336613 131.31693605059732 -15.363316936050596L131.22136331693605 -10.990864371047083V-3.870695713281799Q131.22136331693605 -2.723822909346451 131.4125087842586 -2.2220660576247364Q131.5558678847505 -1.8636683063949402 131.8664792691497 -1.6964160224877018Q132.10541110330288 -1.5530569219957835 132.8699929725931 -1.505270555165144L134.4230498945889 -1.3619114546732256V0.0Q132.46380885453266 -0.16725228390723823 130.98243148278286 -0.16725228390723823Q129.54884047786368 -0.16725228390723823 127.15952213633169 0.0L127.27898805340828 -4.205200281096276Q122.40477863668306 -0.5256500351370345 121.49683766690092 -0.05973295853829938Q120.58889669711876 0.4061841180604357 119.20309205903021 0.4061841180604357Q116.31201686577653 0.4061841180604357 114.69922698524243 -1.134926212227688Q113.08643710470835 -2.6760365425158117 113.08643710470835 -5.232607167955024Q113.08643710470835 -6.881236823612086 113.64792691496837 -8.243148278285311Q114.20941672522838 -9.605059732958537 114.99789177793394 -10.40548137737175Q115.7863668306395 -11.20590302178496 116.59873506676036 -11.588193956430077Q117.98453970484891 -12.23330990864371 121.10260014054813 -12.973998594518623Q124.22066057624735 -13.714687280393534 127.27898805340828 -14.07308503162333Q127.30288123682361 -16.342937456078705 126.72944483485594 -17.609276177090653Q126.15600843288826 -18.8756148981026 124.79409697821504 -19.687983134223472Q123.4321855235418 -20.50035137034434 121.47294448348559 -20.50035137034434Q120.06324666198172 -20.50035137034434 119.0 -20.118060435699228Q117.93675333801826 -19.73576950105411 117.69782150386507 -19.47294448348559L117.26774420238931 -18.61278988053408Q116.62262825017568 -17.179198875614897 116.31201686577653 -16.366830639494026ZM127.27898805340828 -12.615600843288826Q124.17287420941672 -12.08995080815179 121.9747013352073 -11.444834855938158Q119.7765284609979 -10.799718903724525 118.86858749121573 -10.106816584680253Q118.31904427266338 -9.700632466619817 117.91286015460295 -8.888264230498946Q117.29163738580463 -7.693605059732958 117.29163738580463 -6.2361208713984535Q117.29163738580463 -4.468025298664792 118.27125790583274 -3.476458186929023Q119.25087842586085 -2.4848910751932536 120.9950808151792 -2.4848910751932536Q122.59592410400562 -2.4848910751932536 124.16092761770906 -3.404778636683064Q125.72593113141251 -4.324666198172874 127.27898805340828 -6.164441321152494Z"/>
    <path fill="#14161c" d="M162.54532677442023 -21.145467322557973 162.7364722417428 -20.6914968376669Q161.80463808854532 -19.281799016163035 161.5179198875615 -18.756148981026H157.07378777231202Q157.62333099086436 -17.346451159522136 157.62333099086436 -16.10400562192551Q157.62333099086436 -14.288123682361208 156.67955024595923 -12.555867884750526Q155.7357695010541 -10.823612087139844 153.91988756148982 -9.593113141250878Q152.10400562192552 -8.36261419536191 150.049191848208 -7.932536893886156Q148.7111735769501 -7.645818692902319 146.44132115249474 -7.693605059732958Q144.88826423049895 -6.451159522136331 144.48208011243852 -5.829936753338018Q144.21925509487 -5.3998594518622625 144.21925509487 -4.898102600140548Q144.21925509487 -4.324666198172874 144.56570625439213 -3.8826423049894587Q144.91215741391426 -3.440618411806043 145.62895291637386 -3.273366127898805Q146.70414617006324 -2.9866479269149684 149.45186226282502 -2.9866479269149684L154.61278988053408 -3.082220660576247Q157.3127196064652 -3.082220660576247 158.71047083626144 -2.3773717498243148Q160.10822206605764 -1.6725228390723823 160.7772312016866 -0.22698524244553764Q161.44624033731554 1.218552354181307 161.44624033731554 3.034434293745608Q161.44624033731554 5.4954321855235415 159.83345045678146 8.040056219255094Q158.22066057624735 10.584680252986647 155.04286718200984 12.05411103302881Q151.8650737877723 13.523541813070976 147.92269852424457 13.523541813070976Q144.62543921293042 13.523541813070976 142.3078004216444 12.496134926212227Q139.9901616303584 11.468728039353477 138.87912860154603 9.748418833450456Q137.76809557273367 8.028109627547435 137.76809557273367 6.1405481377371745Q137.76809557273367 5.089248067463106 138.09065354884046 4.169360505973295Q138.4132115249473 3.2494729444834856 139.17779339423754 2.1981728742094164Q142.09276177090655 0.8601546029515108 143.35910049191847 -0.14335910049191847Q141.37596626844694 -0.7884750527055516 140.81447645818693 -1.3619114546732256Q140.25298664792692 -1.9353478566408995 140.25298664792692 -2.508784258608573Q140.25298664792692 -2.9866479269149684 140.96978215038652 -5.089248067463106Q142.14054813773717 -6.068868587491216 144.64933239634576 -7.8608573436401965Q142.49894588896697 -8.45818692902319 141.34012649332396 -9.258608573436401Q140.18130709768096 -10.059030217849614 139.53619114546734 -11.432888264230499Q138.8910751932537 -12.806746310611384 138.8910751932537 -14.455375966268447Q138.8910751932537 -16.89248067463106 140.1335207308503 -18.8158819395643Q141.37596626844694 -20.73928320449754 144.3148278285313 -21.945888966971186Q147.2536893886156 -23.152494729444832 149.76247364722417 -23.152494729444832Q151.38721011946592 -23.152494729444832 152.85664089950808 -22.6268446943078Q154.32607167955024 -22.101194659170766 155.64019676739284 -21.049894588896695Q160.13211524947295 -21.073787772312016 162.54532677442023 -21.145467322557973ZM143.0007027406887 -15.769501054111032Q143.0007027406887 -14.07308503162333 143.63387210119467 -12.472241742796907Q144.26704146170064 -10.871398453970484 145.4975404075896 -10.059030217849614Q146.72803935347858 -9.246661981728742 148.30498945888968 -9.246661981728742Q150.35980323260716 -9.246661981728742 151.93675333801826 -10.572733661278988Q153.51370344342936 -11.898805340829233 153.51370344342936 -14.837666900913563Q153.51370344342936 -17.84820801124385 151.93675333801826 -19.628250175685174Q150.35980323260716 -21.408292340126494 148.13773717498242 -21.408292340126494Q145.8200983836964 -21.408292340126494 144.41040056219254 -19.938861560084327Q143.0007027406887 -18.469430780042163 143.0007027406887 -15.769501054111032ZM150.00140548137736 0.2628250175685172Q146.44132115249474 0.2628250175685172 145.5333801827126 0.35839775122979617Q145.07940969782152 0.4300773014757554 144.50597329585383 0.8362614195361912Q142.61841180604358 2.174279690794097 142.49894588896697 2.3176387912860155Q142.26001405481378 2.5565706254392127 141.97329585382994 3.297259311314125Q141.47153900210822 4.635277582572031 141.47153900210822 5.997189037245256Q141.47153900210822 8.50597329585383 143.41883345045676 10.238229093464511Q145.36612789880533 11.970484891075193 148.78285312719606 11.970484891075193Q151.31553056921996 11.970484891075193 153.40618411806042 10.955024595924105Q155.49683766690092 9.939564300773014 156.56008432888262 8.183415319747013Q157.62333099086436 6.427266338721012 157.62333099086436 4.6591707659873505Q157.5516514406184 3.1300070274068865 157.15741391426565 2.341531974701335Q156.76317638791286 1.5530569219957835 156.20168657765285 1.0990864371047082Q155.64019676739284 0.6451159522136332 154.66057624736473 0.35839775122979617Q154.08713984539705 0.28671820098383693 150.00140548137736 0.2628250175685172Z"/>
    <path fill="#14161c" d="M165.38861560084328 -10.990864371047083Q165.38861560084328 -16.342937456078705 168.79339423752634 -19.72382290934645Q172.1981728742094 -23.104708362614193 177.5263527758257 -23.104708362614193Q182.54392129304284 -23.104708362614193 185.69782150386504 -19.95080815179199Q188.85172171468727 -16.79690794096978 188.85172171468727 -11.803232607167955Q188.85172171468727 -8.314827828531271 187.22698524244552 -5.423752635277582Q185.60224877020377 -2.532677442023893 182.63949402670414 -0.8959943780744906Q179.67673928320448 0.7406886858749121 176.11665495432183 0.7406886858749121Q173.34504567814474 0.7406886858749121 171.4216444132115 -0.19114546732255794Q169.49824314827828 -1.122979620520028 168.3035839775123 -2.532677442023893Q167.1089248067463 -3.942375263527758 166.48770203794797 -5.423752635277582Q165.38861560084328 -8.028109627547435 165.38861560084328 -10.990864371047083ZM169.9044272663387 -12.758959943780745Q169.9044272663387 -9.820098383696415 170.8840477863668 -6.785664089950807Q171.8636683063949 -3.7512297962052 173.71539002108221 -2.3534785664089948Q175.5671117357695 -0.9557273366127899 177.74139142656358 -0.9557273366127899Q180.51300070274067 -0.9557273366127899 182.3766690091356 -3.1539002108222065Q184.24033731553055 -5.352073085031623 184.24033731553055 -9.915671117357695Q184.24033731553055 -13.714687280393534 183.1293042867182 -16.474349964862967Q182.0182712579058 -19.234012649332396 180.2979620520028 -20.368938861560082Q178.57765284609977 -21.50386507378777 176.49894588896694 -21.50386507378777Q173.56008432888262 -21.50386507378777 171.73225579761066 -19.377371749824313Q169.9044272663387 -17.250878425860858 169.9044272663387 -12.758959943780745Z"/>
    <path fill="#14161c" d="M193.17638791286015 -7.215741391426564H194.60997891777933Q194.63387210119464 -5.829936753338018 194.75333801827122 -5.017568517217146Q194.87280393534783 -4.205200281096276 195.15952213633167 -3.4286718200983834Q195.44624033731552 -2.6521433591004917 196.0435699226985 -2.1145467322557976Q196.6408995080815 -1.5769501054111033 197.34574841883344 -1.2782853127196065Q198.05059732958537 -0.9796205200281096 198.77933942375262 -0.8840477863668306Q199.50808151791986 -0.7884750527055516 200.9894588896697 -0.7884750527055516Q203.42656359803232 -0.7884750527055516 204.99156711173578 -2.078706957132818Q206.5565706254392 -3.368938861560084 206.5565706254392 -5.61489810260014Q206.5565706254392 -6.61841180604357 206.06676036542515 -7.382993675333801Q205.5769501054111 -8.147575544624033 204.65706254392128 -8.577652846099788Q203.73717498243147 -9.007730147575543 200.70274068868588 -9.700632466619815Q197.66830639494026 -10.39353478566409 196.78425860857342 -10.704146170063247Q195.44624033731552 -11.20590302178496 194.65776528460998 -11.922698524244552Q193.86929023190442 -12.639494026704146 193.4033731553057 -13.738580463808855Q192.93745607870696 -14.837666900913563 192.93745607870696 -16.127898805340827Q192.93745607870696 -18.015460295151087 193.9290231904427 -19.60435699226985Q194.92059030217848 -21.193253689388616 197.04708362614195 -22.184820801124385Q199.1735769501054 -23.176387912860154 201.68236120871398 -23.176387912860154Q203.18763176387912 -23.176387912860154 205.17076598735065 -22.758257203092057Q207.1539002108222 -22.34012649332396 208.3963457484188 -21.71890372452565Q208.22909346451158 -19.066760365425157 208.15741391426562 -16.319044272663387H206.7955024595924Q206.6760365425158 -18.06324666198173 206.52073085031623 -18.61278988053408Q206.36542515811664 -19.162333099086435 206.10260014054813 -19.59241040056219Q205.8397751229796 -20.022487702037946 205.194659170766 -20.512297962052003Q204.54954321855234 -21.002108222066056 203.53408292340126 -21.384399156711172Q202.51862262825017 -21.76669009135629 201.03724525650034 -21.76669009135629Q198.9346451159522 -21.76669009135629 197.6563598032326 -20.52424455375966Q196.378074490513 -19.281799016163035 196.378074490513 -17.609276177090653Q196.378074490513 -16.67744202389318 196.74841883345044 -16.00843288826423Q197.1187631763879 -15.339423752635277 197.73998594518622 -14.92129304286718Q198.36120871398452 -14.503162333099086 199.48418833450455 -14.168657765284609L203.45045678144763 -13.1890372452565Q206.46099789177794 -12.424455375966268 207.59592410400563 -11.874912157413913Q208.7308503162333 -11.32536893886156 209.42375263527757 -10.16654954321855Q210.11665495432183 -9.007730147575543 210.11665495432183 -7.382993675333801Q210.11665495432183 -4.157413914265636 207.45256500351368 -1.7561489810260014Q204.78847505270554 0.6451159522136332 200.32044975404074 0.6451159522136332Q198.26563598032325 0.6451159522136332 194.84891075193252 0.023893183415319746Q192.96134926212227 -0.33450456781447646 192.81799016163035 -0.47786366830639493Q192.72241742796908 -0.5495432185523541 192.72241742796908 -0.7167955024595923Q192.72241742796908 -0.8840477863668306 192.7702037947997 -1.122979620520028Q192.98524244553758 -2.150386507378777 193.05692199578354 -3.1300070274068865Q193.1286015460295 -4.109627547434997 193.17638791286015 -7.215741391426564Z"/>
  </g>
</svg>
